<svg width="43.859" height="53.388" viewBox="0 0 11.604 14.125" id="svg5" xmlns="http://www.w3.org/2000/svg"><g id="layer1" transform="translate(-34.636 -25.326)"><path d="M40.223 39.398c-1.827-.736-3.354-2.097-4.349-3.874a9.671 9.671 0 01-1.13-3.368c-.073-.5-.118-1.566-.106-2.548l.009-.769.073-.11c.064-.097.413-.313 2.825-1.747 2.936-1.747 2.87-1.712 3.079-1.623.052.023 1.307.763 2.787 1.644 1.881 1.12 2.712 1.629 2.76 1.691l.069.09v1.451c0 1.238-.008 1.502-.05 1.797-.182 1.293-.559 2.436-1.15 3.492-.989 1.766-2.524 3.142-4.3 3.853-.235.093-.329.097-.517.021zm-.6-4.996c.122-.03.225-.126 1.63-1.525.824-.822 1.535-1.549 1.58-1.616.165-.248.081-.55-.192-.692a.6.6 0 00-.392 0c-.037.018-.672.638-1.412 1.376l-1.346 1.342-.393-.392c-.217-.215-.429-.404-.471-.42a.488.488 0 00-.546.168.542.542 0 00-.042.469c.024.051.303.352.619.667.425.425.603.584.683.613.135.048.126.048.283.01z" id="path9249" fill="#19174b" fill-opacity="1" stroke-width="0.028"></path></g></svg>