<svg xmlns="http://www.w3.org/2000/svg" viewBox="0 0 338.97 313.45" class="css-w5vznv"><g id="Livello_2" data-name="Livello 2"><g id="Livello_1-2" data-name="Livello 1"><path class="cls-1" d="M338 175.58l-18-55.59v.08a.29.29 0 000-.09L284.08 9.66A14.11 14.11 0 00270.55 0a13.93 13.93 0 00-13.37 9.75l-34 104.7H115.86L81.78 9.74A13.92 13.92 0 0068.42 0h-.07a14.21 14.21 0 00-13.49 9.75L19.13 120V120.01L1 175.58a20.27 20.27 0 007.36 22.7l156.42 113.64.07.05.2.14-.19-.13a7.25 7.25 0 00.75.47l.1.06h.2c.13.07.28.12.42.18l.39.16H167.01a5.27 5.27 0 00.57.14l.23.05h.32a8.34 8.34 0 001.13.09 8.32 8.32 0 001.12-.09h.32l.23-.05c.19 0 .38-.08.57-.14h.26l.41-.17.39-.16H172.77l.11-.07A7.17 7.17 0 00174 312h.06l.08-.05 156.47-113.68a20.25 20.25 0 007.39-22.69zM270.64 20l30.68 94.45H240zM296 130.43l-12.52 16-92.38 118.34 43.68-134.34zm-134.12 177.5v.07zm-14-43.15L43.07 130.43h61.18zM68.33 20l30.73 94.45H37.7zM17.75 185.36a4.33 4.33 0 01-1.56-4.84l13.47-41.33 98.67 126.51zM164.5 311.71l-.09-.07a1.29 1.29 0 01-.17-.16c-.12-.09-.23-.2-.34-.3a8.42 8.42 0 00.72.62zm5-32.09l-25.67-79.06-22.76-70.13H218zm5.25 31.84l-.18.16-.09.07a1.66 1.66 0 01-.21.16 6.91 6.91 0 00.71-.61zm146.47-126.11l-110.56 80.32 98.7-126.47 13.41 41.31a4.3 4.3 0 01-1.55 4.84z" id="logo_art" data-name="logo art"></path></g></g></svg>