<svg width="45.928" height="45.932" viewBox="0 0 12.152 12.153" id="svg5" xmlns="http://www.w3.org/2000/svg"><g id="layer1" transform="translate(-34.365 -26.388)"><g id="layer1-3" transform="translate(94.37 11.112)"><path d="M-57.726 27.385a1.176 1.176 0 01-.589-.345 1.3 1.3 0 01-.363-.648c-.018-.085-.027-.74-.027-2.025v-1.9h-.16a1.122 1.122 0 01-1.127-.943 1.128 1.128 0 01.103-.672c.068-.142.273-.353 2.69-2.77 2.416-2.417 2.628-2.622 2.77-2.69.322-.154.679-.154.995-.002.146.07.348.266 2.773 2.692 2.417 2.416 2.622 2.628 2.69 2.77.104.218.14.451.103.671a1.122 1.122 0 01-1.125.945h-.16l-.007 1.965-.007 1.966-.064.163a1.322 1.322 0 01-.953.834c-.145.032-.332.037-1.256.031-1.053-.006-1.087-.008-1.15-.056a.68.68 0 01-.115-.114c-.048-.064-.05-.096-.06-1.652l-.013-1.585-.072-.117a.676.676 0 00-.408-.28c-.117-.02-1.227-.02-1.343 0a.676.676 0 00-.409.28l-.072.117-.012 1.585c-.011 1.556-.013 1.588-.06 1.652a.677.677 0 01-.115.114c-.064.048-.096.05-1.175.054-1.028.005-1.12.002-1.282-.04z" id="path8857" fill="#19174b" fill-opacity="1" stroke-width="0.024"></path></g></g></svg>