<svg xmlns="http://www.w3.org/2000/svg" viewBox="0 0 560.45 715.73"><defs><style>.a{fill:#75a928}.b{fill:#bc1142}</style></defs><path d="M151.71 0c-3.62.11-7.52 1.45-11.94 4.94C129 .77 118.45-.68 109.06 7.82c-14.5-1.88-19.21 2-22.79 6.53-3.18-.06-23.81-3.27-33.27 10.85-23.78-2.82-31.29 14-22.78 29.65-4.86 7.52-9.89 14.95 1.47 29.28-4 8-1.53 16.65 7.94 27.13-2.5 11.22 2.41 19.14 11.22 25.31-1.66 15.36 14.07 24.29 18.77 27.43 1.8 9 5.56 17.39 23.53 22.06 3 13.34 13.76 15.64 24.22 18.44-34.56 20.09-64.2 46.52-64 111.37l-5.06 9C8.67 349.05-27 426.51 28.77 489.48 32.42 509.19 38.52 523.34 44 539c8.14 63.13 61.22 92.69 75.22 96.19 20.52 15.62 42.37 30.45 71.94 40.84 27.87 28.75 58.07 39.71 88.44 39.69h1.34c30.36 0 60.56-10.94 88.44-39.69 29.57-10.39 51.42-25.22 71.93-40.84 14-3.5 67.09-33.06 75.22-96.19 5.44-15.67 11.55-29.82 15.19-49.53 55.75-63 20.1-140.43-19.53-164.53l-5.06-9c.2-64.85-29.44-91.28-64-111.37 10.45-2.8 21.25-5.1 24.22-18.44 18-4.67 21.72-13.11 23.53-22.06 4.69-3.18 20.43-12.11 18.78-27.47 8.8-6.17 13.71-14.09 11.22-25.31 9.46-10.48 11.95-19.14 7.93-27.13 11.36-14.33 6.33-21.76 1.47-29.28 8.52-15.67 1-32.47-22.78-29.65-9.46-14.12-30.1-10.91-33.28-10.85-3.57-4.53-8.29-8.41-22.78-6.53C442-.68 431.51.77 420.68 5c-12.86-10.2-21.37-2.07-31.09 1-15.59-5.08-19.14 1.89-26.78 4.73-17-3.59-22.14 4.22-30.29 12.47l-9.46-.2c-25.61 15.09-38.34 45.82-42.85 61.62C275.7 68.83 263 38.1 237.4 23l-9.47.19c-8.15-8.19-13.31-16.05-30.28-12.46C190 7.89 186.44.92 170.87 6c-6.38-2-12.25-6.21-19.16-6z"></path><path class="a" d="M100.73 66.41c68 35 107.45 63.37 129.09 87.5-11.09 44.42-68.9 46.45-90 45.2 4.33-2 7.94-4.43 9.22-8.14-5.3-3.77-24.11-.39-37.24-7.77 5-1 7.4-2.06 9.76-5.79-12.41-3.95-25.77-7.36-33.63-13.92 4.24.06 8.2.95 13.74-2.89-11.11-6-23-10.73-32.18-19.89 5.75-.14 11.94-.05 13.74-2.17a123.61 123.61 0 01-25.85-21c8 1 11.43.14 13.38-1.26-7.76-7.85-17.46-14.5-22.1-24.2 6 2.06 11.43 2.85 15.37-.18-2.61-5.9-13.81-9.37-20.25-23.14 6.28.61 12.95 1.37 14.28 0-2.92-11.89-7.93-18.57-12.84-25.49 13.45-.2 33.83 0 32.91-1.09l-8.32-8.5c13.14-3.53 26.58.57 36.34 3.62 4.38-3.46-.08-7.83-5.42-12.29a131.83 131.83 0 0130.37 7.59c4.87-4.4-3.16-8.8-7-13.2 17.25 3.27 24.56 7.87 31.82 12.48 5.27-5.06.3-9.35-3.25-13.74 13 4.81 19.7 11 26.75 17.17 2.4-3.23 6.08-5.59 1.63-13.38a67.91 67.91 0 0121.34 18.62c5.71-3.63 3.4-8.61 3.43-13.19 9.6 7.8 15.69 16.11 23.14 24.22 1.5-1.09 2.82-4.8 4-10.66 22.89 22.21 55.25 78.15 8.32 100.34-39.99-32.95-87.69-56.89-140.55-74.85zM461.26 66.41c-67.95 35-107.45 63.37-129.09 87.5 11.09 44.42 68.9 46.45 90 45.2-4.33-2-7.94-4.43-9.22-8.14 5.3-3.77 24.11-.39 37.24-7.77-5-1-7.4-2.06-9.76-5.79 12.41-3.95 25.77-7.36 33.63-13.92-4.24.06-8.2.95-13.74-2.89 11.11-6 23-10.73 32.18-19.89-5.75-.14-11.94-.05-13.74-2.17a123.61 123.61 0 0025.85-21c-8 1-11.43.14-13.38-1.26 7.69-7.88 17.42-14.53 22.06-24.23-6 2.06-11.43 2.85-15.37-.18 2.62-5.89 13.81-9.37 20.25-23.14-6.28.61-13 1.37-14.28 0 2.92-11.89 7.93-18.57 12.84-25.49-13.45-.2-33.83 0-32.91-1.09l8.32-8.5c-13.14-3.53-26.58.57-36.34 3.62-4.38-3.46.08-7.83 5.42-12.29a131.83 131.83 0 00-30.37 7.59c-4.87-4.4 3.16-8.8 7.05-13.2-17.25 3.27-24.56 7.87-31.82 12.48-5.27-5.06-.3-9.35 3.25-13.74-13 4.81-19.7 11-26.75 17.17-2.4-3.23-6.08-5.59-1.63-13.38a67.76 67.76 0 00-21.33 18.62c-5.72-3.63-3.41-8.61-3.44-13.19-9.6 7.8-15.69 16.11-23.14 24.22-1.5-1.09-2.82-4.8-4-10.66-22.89 22.21-55.24 78.15-8.32 100.34 39.92-32.95 87.62-56.89 140.48-74.85z"></path><path class="b" d="M363.28 518.71c0 41.45-36.44 75-81.39 75s-81.39-33.6-81.39-75 36.44-75.05 81.39-75.05 81.39 33.6 81.39 75.05zM234.79 304.31c33.72 22.1 39.8 72.18 13.58 111.87S173.55 470.12 139.82 448c-33.72-22.1-39.8-72.18-13.58-111.87s74.83-53.94 108.55-31.85zM325.82 300.31c-33.72 22.1-39.8 72.18-13.58 111.87s74.83 53.94 108.55 31.82c33.72-22.1 39.8-72.18 13.58-111.87s-74.82-53.94-108.55-31.85zM66.25 340.44c36.41-9.76 12.29 150.64-17.34 137.48C16.33 451.7 5.83 374.94 66.25 340.44zM487 338.44c-36.42-9.76-12.3 150.64 17.33 137.48 32.61-26.22 43.1-102.98-17.33-137.48zM363.31 219c62.83-10.62 115.11 26.72 113 94.85-2.07 26.12-136.16-91-113-94.85zM189.7 217c-62.84-10.62-115.12 26.72-113 94.85 2.05 26.15 136.14-90.96 113-94.85zM280 201.11c-37.51-1-73.5 27.83-73.59 44.54-.1 20.31 29.66 41.09 73.84 41.62 45.12.33 73.92-16.64 74.06-37.59.17-23.74-41-48.94-74.31-48.57zM282.25 617.47c32.69-1.47 76.57 10.53 76.65 26.39.55 15.41-39.79 50.21-78.82 49.54-40.43 1.75-80.07-33.11-79.55-45.2-.61-17.71 49.22-31.54 81.72-30.73zM161.48 523.46c23.27 28 33.89 77.31 14.46 91.84-18.38 11.09-63 6.52-94.74-39-21.39-38.3-18.63-77.21-3.61-88.64 22.46-13.66 57.17 4.8 83.89 35.8zM398.36 514.56c-25.19 29.51-39.21 83.31-20.84 100.65 17.57 13.46 64.73 11.58 99.57-36.76 25.29-32.46 16.82-86.68 2.37-101.07-21.46-16.61-52.28 4.62-81.1 37.18z"></path></svg>