<svg width="32" height="32" viewBox="0 0 32 32" xmlns="http://www.w3.org/2000/svg" class="css-w5vznv"><path d="M27.09 5.31L16.473 1.69A1.537 1.537 0 0016 1.626c-.172 0-.344.022-.472.066L4.91 5.309a.75.75 0 00-.471.663v15.075c0 .275.178.637.393.81l10.772 8.393c.11.084.25.128.394.128a.639.639 0 00.394-.128l10.772-8.394c.215-.169.393-.531.393-.81V5.973c.006-.275-.206-.572-.465-.663zm-5.387 5.337l-6.644 9.147a.502.502 0 01-.812 0l-3.95-5.438a.25.25 0 01.203-.397h1.725c.16 0 .313.079.406.207l2.022 2.78 4.716-6.493a.503.503 0 01.406-.206H21.5c.203.003.322.234.203.4z"></path></svg>