<svg width="21" height="21" viewBox="0 0 160 160" fill="none" xmlns="http://www.w3.org/2000/svg" class="css-1d0xrep"><g clip-path="url(#clip0_942_33)"><path d="M45.4 38.467l-.561 17.97 7.58-10.39 10.389 8.143 9.265 18.811 12.634 3.93.842 52.784 6.177-26.953 7.58 14.88.562-32.007 15.161 8.985-33.972-49.695-24.426-8.985-11.23 2.527z" fill="#fff" stroke="#5DF" stroke-opacity="0.941" stroke-width="0.147"></path><path d="M154.841 79.92a74.922 74.922 0 11-.009-1.106" stroke="#fff" stroke-width="9.932" stroke-linecap="round"></path><path d="M76.911 121.555c-.1-.728-.543-2.626-.907-3.883-.904-3.123-2.367-6.015-3.837-7.589-.343-.367-1.138-1.055-1.766-1.53-1.794-1.356-2.836-2.249-4.347-3.725-4.649-4.543-8.49-10.389-11.023-16.772-.562-1.418-1.28-3.536-1.218-3.598.023-.023.097.124.163.329.425 1.313 1.694 4.008 2.765 5.871 3.67 6.383 8.477 11.693 15.44 17.056 1.503 1.158 2.493 2.223 3.736 4.021.37.535.686.989.702 1.01.13.163 1.049-1.484 1.587-2.843 1.324-3.345 1.879-6.67 1.653-9.899-.552-7.88-5.527-14.356-14.74-19.186-1.725-.904-3.517-1.705-5.89-2.63-2.295-.897-3.691-1.578-5.094-2.487-1.226-.794-2.917-2.064-3.793-2.848-.364-.326-.7-.592-.748-.592-.277 0-2.402 4.16-3.141 6.15-1.035 2.787-1.759 5.759-2.073 8.512-.357 3.133-.13 7.334.532 9.876 1.008 3.866 3.264 7.862 6.086 10.779 3.843 3.973 8.486 6.134 14.275 6.647 1.26.111 4.547.073 5.696-.067l.496-.061.642 1.269c.681 1.344 1.238 2.952 1.57 4.533l.203.961 1.168.41a37.1 37.1 0 011.547.573l.378.162-.062-.449z" fill="#fff"></path></g><defs><clipPath id="clip0_942_33"><path fill="#fff" d="M0 0h159.841v159.841H0z"></path></clipPath></defs></svg>