<svg id="Livello_1" xmlns="http://www.w3.org/2000/svg" xmlns:xlink="http://www.w3.org/1999/xlink" viewBox="0 0 250 250" class="css-1mp9uov"><defs><clipPath id="clippath"><path class="st0" d="M-2.84 0h255.68v250H-2.84z"></path></clipPath><clipPath id="clippath-1"><path class="st0" d="M179.8 60.92a4.11 4.11 0 00-1.69 5.56c4.71 8.84 7.2 18.84 7.2 28.92 0 6.71-1.07 13.31-3.18 19.6l-.54 1.6 11.22 22.86c-14.99 23.04-40.14 36.72-67.72 36.72a4.11 4.11 0 100 8.22c31.21 0 59.59-15.9 75.93-42.54l1.18-1.93-11.75-23.95a69.738 69.738 0 003.09-20.59c0-11.43-2.82-22.77-8.16-32.79a4.106 4.106 0 00-3.63-2.18c-.65 0-1.31.16-1.93.48"></path></clipPath><clipPath id="clippath-2"><path class="st0" d="M136.65 52.55c-.73 2.15.42 4.48 2.57 5.21 16.12 5.47 26.96 20.59 26.96 37.63 0 13.35-6.65 25.73-17.78 33.12a4.11 4.11 0 00-1.15 5.7c.79 1.19 2.1 1.84 3.43 1.84.78 0 1.57-.22 2.27-.69 13.44-8.92 21.46-23.87 21.46-39.97 0-20.56-13.08-38.82-32.54-45.42-.44-.15-.88-.22-1.32-.22-1.71 0-3.31 1.08-3.9 2.79"></path></clipPath><clipPath id="clippath-3"><path class="st0" d="M100.96 11.07l-1.79.53-13.82 24.17a72.081 72.081 0 00-21.08 21.62c-10.23 16.18-13.49 35.23-9.2 53.65 4.29 18.42 15.64 34 31.93 43.87 4.46 2.7 9.21 4.91 14.13 6.58l2.97 1.01 12.6-14.88c3.85.25 11.34.32 18.19-1.97 2.39-.8 3.69-3.35 2.91-5.69-.78-2.34-3.35-3.6-5.74-2.8-6.25 2.09-14.12 1.68-16.62 1.34l-2.51-.34-11.67 13.78a63.164 63.164 0 01-9.43-4.68c-29.39-17.8-38.31-56.02-19.86-85.2 4.97-7.86 11.44-14.4 19.24-19.43l.94-.61 13.07-22.86c19.32-5.22 39.55-3.17 57.17 5.85 2.22 1.14 4.97.27 6.16-1.93 1.13-2.1.41-4.67-1.59-5.88-.09-.06-.19-.11-.28-.16a88.045 88.045 0 00-40.17-9.68c-8.53 0-17.13 1.23-25.55 3.71"></path></clipPath><clipPath id="clippath-4"><path class="st0" d="M114.67 44.18c-14.23 3-26.3 11.34-33.96 23.47-15.39 24.34-7.73 56.37 17.08 71.4 2.13 1.29 4.93.64 6.25-1.45a4.39 4.39 0 00-1.46-6.12c-20.56-12.45-26.9-38.99-14.15-59.16 6.36-10.05 16.35-16.96 28.15-19.45 2.45-.52 4.01-2.88 3.49-5.28a4.437 4.437 0 00-2.05-2.85 4.627 4.627 0 00-3.34-.56"></path></clipPath><clipPath id="clippath-5"><path class="st0" d="M164.69 149.7c-1.33-.81-1.75-2.53-.91-3.82.81-1.31 2.58-1.7 3.88-.91 1.33.81 1.74 2.51.91 3.82-.53.85-1.46 1.32-2.41 1.32-.5 0-1.02-.13-1.48-.41m-8.61-8.49c-1.58 2.47-2.08 5.3-1.64 7.97-10.9 5.71-21.95 8.14-34.24 6.98-2.49-.23-4.72 1.56-4.96 4.01-.25 2.45 1.58 4.61 4.07 4.86 14.25 1.33 27.31-1.56 39.89-8.26.23.17.46.33.73.5 5.57 3.36 12.92 1.66 16.39-3.8 3.45-5.48 1.72-12.67-3.84-16.05-1.94-1.18-4.1-1.74-6.24-1.74-4 0-7.9 1.97-10.15 5.54"></path></clipPath><clipPath id="clippath-6"><path class="st0" d="M69.54 27.36a2.968 2.968 0 01-.98-4.13c.87-1.41 2.76-1.85 4.19-.98 1.43.87 1.89 2.72 1 4.13a3.09 3.09 0 01-4.21.98m-8.71-8.81a11.66 11.66 0 00-.96 10.59 91.307 91.307 0 00-13.94 17.09C32.87 66.89 28.8 91.28 34.44 114.91c5.65 23.63 20.35 43.67 41.41 56.43 23.16 14.02 51.34 17.36 77.32 9.14 2.37-.77 3.7-3.28 2.93-5.61-.77-2.33-3.32-3.61-5.71-2.87-23.43 7.43-48.85 4.42-69.74-8.22-39.23-23.76-51.34-74.39-27-112.89 3.53-5.59 7.7-10.69 12.42-15.28 5.48 2.47 12.11.6 15.37-4.55 3.53-5.59 1.76-12.92-3.91-16.36-1.98-1.2-4.18-1.77-6.35-1.77-4.07 0-8.06 2-10.36 5.63"></path></clipPath><clipPath id="clippath-7"><path class="st0" d="M164.96 46.22c-1.16-.71-1.52-2.2-.79-3.34.73-1.14 2.24-1.5 3.41-.79 1.16.71 1.54 2.2.81 3.34-.47.74-1.29 1.15-2.12 1.15-.45 0-.9-.12-1.3-.36M108.62 28c-2.43.58-3.95 2.99-3.36 5.38.58 2.37 3.03 3.84 5.48 3.26 15.1-3.57 30.65-1.47 44.11 5.9-.64 4.32 1.31 8.81 5.34 11.24 5.42 3.28 12.54 1.62 15.91-3.68 3.36-5.32 1.68-12.32-3.72-15.6-4.07-2.45-9.12-2.14-12.79.44-10.62-5.88-22.38-8.89-34.33-8.89-5.54 0-11.11.65-16.63 1.95"></path></clipPath><clipPath id="clippath-8"><path class="st0" d="M100.52 75.33c-6.52 7.81-8.68 18.09-5.81 28.02 1.43 4.94 4.17 9.47 7.89 13.04 5.59 5.38 12.69 8.33 20.08 8.56 3.14.1 6.33-.29 9.49-1.2 4.82-1.37 9.22-3.99 12.75-7.5l.06-.06c1.6-1.6 2.99-3.34 4.15-5.17 1.02-1.6.81-3.47-.19-4.8-.02 1.62-1.31 2.91-2.93 2.91s-2.91-1.31-2.91-2.93c0-.48.1-.91.31-1.31-.75.35-1.39.91-1.85 1.62-.21.35-.46.69-.71 1.02-1.06 1.41-2.24 2.68-3.57 3.76-4.07 3.39-9.32 5.15-14.97 4.86-2.58-.12-5.11-.75-7.46-1.85-8.22-3.82-13.06-11.86-12.61-20.89.15-2.57.77-5.13 1.87-7.48 3.91-8.43 12.07-12.86 20.25-12.61 4.22.15 8.45 1.52 12.09 4.22 2.35 1.74 4.26 3.9 5.69 6.33.77 1.31 2.1 2.18 3.61 2.22l.27.02c3.3.1 5.54-3.47 3.9-6.33-2.43-4.28-5.92-7.93-10.26-10.68-4.89-3.07-10.42-4.56-15.92-4.56-8.73 0-17.37 3.74-23.25 10.79"></path></clipPath><clipPath id="clippath-9"><path class="st0" d="M143.11 106.19c0-.48.1-.91.31-1.31.69-1.38 2.43-2.11 4.21-1.18.82.43 1.32 1.29 1.32 2.21v.4c0 .95-.46 1.87-1.29 2.34-2.24 1.29-4.55-.31-4.55-2.47m-7.2.01c0 1.85.5 3.59 1.39 5.09 1.56 2.72 4.36 4.61 7.62 4.96.37.04.73.06 1.1.06 5.59 0 10.11-4.53 10.11-10.11s-4.53-10.11-10.11-10.11-10.11 4.53-10.11 10.11"></path></clipPath><clipPath id="clippath-10"><path class="st0" d="M206.48 116.31a2.601 2.601 0 115.202.002 2.601 2.601 0 01-5.202-.002m-8.98 0c0 6.4 5.18 11.58 11.58 11.58s11.58-5.18 11.58-11.58-5.18-11.58-11.58-11.58-11.58 5.18-11.58 11.58"></path></clipPath><clipPath id="clippath-11"><path class="st0" d="M187.97 38.23c-1.75 1.44-2 4.03-.55 5.78 11.89 14.41 18.44 32.66 18.44 51.38 0 3.74-.27 7.47-.78 11.16.96-.23 1.95-.37 2.97-.37 1.86 0 3.63.41 5.22 1.14.53-3.95.81-7.93.81-11.94 0-20.63-7.22-40.73-20.33-56.62-.81-.99-1.99-1.5-3.17-1.5-.92 0-1.85.31-2.61.94"></path></clipPath><clipPath id="clippath-12"><path class="st0" d="M4.58 221.94c0 12.13 9.29 20.9 21.71 20.9 6.67 0 12.36-2.38 16.14-6.79l-4.88-4.64c-2.96 3.25-6.62 4.82-10.85 4.82-8.42 0-14.51-5.92-14.51-14.28s6.09-14.28 14.51-14.28c4.24 0 7.89 1.57 10.85 4.76l4.88-4.59c-3.77-4.41-9.46-6.79-16.08-6.79-12.48 0-21.77 8.77-21.77 20.9"></path></clipPath><clipPath id="clippath-13"><path class="st0" d="M115.67 201.3h7.31v40.58h-7.31z"></path></clipPath><clipPath id="clippath-14"><path class="st0" d="M153 207.79h9.77c8.97 0 14.78 5.46 14.78 13.8s-5.81 13.8-14.78 13.8H153v-27.6zm-7.3-6.49v40.58h17.74c13.16 0 22.15-8.12 22.15-20.29s-8.99-20.29-22.15-20.29H145.7z"></path></clipPath><clipPath id="clippath-15"><path class="st0" d="M209.86 221.94c0-8.3 6.09-14.28 14.28-14.28s14.28 5.98 14.28 14.28-6.09 14.28-14.28 14.28-14.28-5.98-14.28-14.28m-7.6 0c0 12.02 9.29 20.9 21.88 20.9s21.88-8.82 21.88-20.9-9.29-20.9-21.88-20.9-21.88 8.88-21.88 20.9"></path></clipPath><clipPath id="clippath-16"><path class="st0" d="M72.88 201.3l-18.63 41.39h8.12l4.15-9.74 2.44-5.68h-.03l7.66-17.87 7.71 17.87h-.03l6.63 15.42h8.24L80.45 201.3h-7.57z"></path></clipPath><linearGradient id="Sfumatura_senza_nome_16" data-name="Sfumatura senza nome 16" x1="-0.6" y1="-0.77" x2="0.21" y2="-0.77" gradientTransform="matrix(270.56 0 0 -270.56 211.64 -85.15)" gradientUnits="userSpaceOnUse"><stop offset="0" stop-color="#a73e3b"></stop><stop offset="0.2" stop-color="#a73e3b"></stop><stop offset="0.8" stop-color="#dfaf5e"></stop><stop offset="1" stop-color="#dfaf5e"></stop></linearGradient><linearGradient id="Sfumatura_senza_nome_161" data-name="Sfumatura senza nome 16" x1="-0.6" y1="-0.83" x2="0.21" y2="-0.83" gradientTransform="matrix(270.56 0 0 -270.56 194.29 -130.86)" xlink:href="#Sfumatura_senza_nome_16"></linearGradient><linearGradient id="Sfumatura_senza_nome_162" data-name="Sfumatura senza nome 16" x1="-0.6" y1="-0.84" x2="0.21" y2="-0.84" gradientTransform="matrix(270.56 0 0 -270.56 182.42 -141.4)" xlink:href="#Sfumatura_senza_nome_16"></linearGradient><linearGradient id="Sfumatura_senza_nome_163" data-name="Sfumatura senza nome 16" x1="-0.6" y1="-0.8" x2="0.21" y2="-0.8" gradientTransform="matrix(270.56 0 0 -270.56 183.57 -125.47)" xlink:href="#Sfumatura_senza_nome_16"></linearGradient><linearGradient id="Sfumatura_senza_nome_164" data-name="Sfumatura senza nome 16" x1="-0.6" y1="-0.75" x2="0.21" y2="-0.75" gradientTransform="matrix(270.56 0 0 -270.56 225.07 -51.52)" xlink:href="#Sfumatura_senza_nome_16"></linearGradient><linearGradient id="Sfumatura_senza_nome_165" data-name="Sfumatura senza nome 16" x1="-0.6" y1="-0.8" x2="0.21" y2="-0.8" gradientTransform="matrix(270.56 0 0 -270.56 188.3 -115.15)" xlink:href="#Sfumatura_senza_nome_16"></linearGradient><linearGradient id="Sfumatura_senza_nome_166" data-name="Sfumatura senza nome 16" x1="-0.6" y1="-0.85" x2="0.21" y2="-0.85" gradientTransform="matrix(270.56 0 0 -270.56 163.77 -189.27)" xlink:href="#Sfumatura_senza_nome_16"></linearGradient><linearGradient id="Sfumatura_senza_nome_167" data-name="Sfumatura senza nome 16" x1="-0.6" y1="-0.81" x2="0.21" y2="-0.81" gradientTransform="matrix(270.56 0 0 -270.56 189.78 -125.1)" xlink:href="#Sfumatura_senza_nome_16"></linearGradient><linearGradient id="Sfumatura_senza_nome_168" data-name="Sfumatura senza nome 16" x1="-0.6" y1="-0.8" x2="0.21" y2="-0.8" gradientTransform="matrix(270.56 0 0 -270.56 200.1 -109.68)" xlink:href="#Sfumatura_senza_nome_16"></linearGradient><linearGradient id="Sfumatura_senza_nome_169" data-name="Sfumatura senza nome 16" x1="-0.6" y1="-0.76" x2="0.21" y2="-0.76" gradientTransform="matrix(270.56 0 0 -270.56 216.16 -89.54)" xlink:href="#Sfumatura_senza_nome_16"></linearGradient><linearGradient id="Sfumatura_senza_nome_1610" data-name="Sfumatura senza nome 16" x1="-0.6" y1="-0.79" x2="0.21" y2="-0.79" gradientTransform="matrix(270.56 0 0 -270.56 190.37 -142.33)" xlink:href="#Sfumatura_senza_nome_16"></linearGradient><linearGradient id="Sfumatura_senza_nome_1611" data-name="Sfumatura senza nome 16" x1="0.78" y1="-0.86" x2="1.59" y2="-0.86" gradientTransform="matrix(0 224.12 224.12 0 215.46 43.3)" xlink:href="#Sfumatura_senza_nome_16"></linearGradient><linearGradient id="Sfumatura_senza_nome_1612" data-name="Sfumatura senza nome 16" x1="0.78" y1="-0.92" x2="1.59" y2="-0.92" gradientTransform="matrix(0 224.12 224.12 0 324.44 -25.15)" xlink:href="#Sfumatura_senza_nome_16"></linearGradient><linearGradient id="Sfumatura_senza_nome_1613" data-name="Sfumatura senza nome 16" x1="0.78" y1="-0.93" x2="1.59" y2="-0.93" gradientTransform="matrix(0 224.12 224.12 0 373.17 -58.26)" xlink:href="#Sfumatura_senza_nome_16"></linearGradient><linearGradient id="Sfumatura_senza_nome_1614" data-name="Sfumatura senza nome 16" x1="0.78" y1="-0.99" x2="1.59" y2="-0.99" gradientTransform="matrix(0 224.12 224.12 0 446.34 -100.11)" xlink:href="#Sfumatura_senza_nome_16"></linearGradient><linearGradient id="Sfumatura_senza_nome_1615" data-name="Sfumatura senza nome 16" x1="0.78" y1="-0.85" x2="1.59" y2="-0.85" gradientTransform="matrix(0 224.12 224.12 0 267.06 5.28)" xlink:href="#Sfumatura_senza_nome_16"></linearGradient><style>.st0{fill:none}</style></defs><g clip-path="url(#clippath)"><g clip-path="url(#clippath-1)"><path transform="rotate(-33.5 161.6 122.43)" fill="url(#Sfumatura_senza_nome_16)" d="M93.5 48.31h136.16v148.21H93.5z"></path></g><g clip-path="url(#clippath-2)"><path transform="rotate(-33.5 155.171 92.92)" fill="url(#Sfumatura_senza_nome_161)" d="M115.3 46.31h79.72v93.2H115.3z"></path></g><g clip-path="url(#clippath-3)"><path transform="rotate(-33.5 110.252 84.927)" fill="url(#Sfumatura_senza_nome_162)" d="M17.84-12.57h184.79v195H17.84z"></path></g><g clip-path="url(#clippath-4)"><path transform="rotate(-33.5 92.964 92.225)" fill="url(#Sfumatura_senza_nome_163)" d="M43.34 36.83h99.21V147.6H43.34z"></path></g><g clip-path="url(#clippath-5)"><path transform="rotate(-33.5 147.38 151.017)" fill="url(#Sfumatura_senza_nome_164)" d="M111.89 120.34h70.95v61.34h-70.95z"></path></g><g clip-path="url(#clippath-6)"><path transform="rotate(-33.5 92.86 100.818)" fill="url(#Sfumatura_senza_nome_165)" d="M-9.07-7.82h203.83v217.27H-9.07z"></path></g><g clip-path="url(#clippath-7)"><path transform="rotate(-33.5 142.079 41.547)" fill="url(#Sfumatura_senza_nome_166)" d="M102.33 7.98h79.48v67.14h-79.48z"></path></g><g clip-path="url(#clippath-8)"><path transform="rotate(-33.5 121.735 94.815)" fill="url(#Sfumatura_senza_nome_167)" d="M80.11 53.08h83.22v83.43H80.11z"></path></g><g clip-path="url(#clippath-9)"><path transform="rotate(-33.5 146.045 106.208)" fill="url(#Sfumatura_senza_nome_168)" d="M132.01 92.18h28.03v28.03h-28.03z"></path></g><g clip-path="url(#clippath-10)"><path transform="rotate(-33.5 209.1 116.307)" fill="url(#Sfumatura_senza_nome_169)" d="M193.03 100.26h32.09v32.09h-32.09z"></path></g><g clip-path="url(#clippath-11)"><path transform="rotate(-33.5 200.055 72.313)" fill="url(#Sfumatura_senza_nome_1610)" d="M168.97 35.35h62.11v73.93h-62.11z"></path></g><g clip-path="url(#clippath-12)"><path transform="rotate(-45.63 23.492 221.93)" fill="url(#Sfumatura_senza_nome_1611)" d="M-4.66 193.8h56.34v56.28H-4.66z"></path></g><g clip-path="url(#clippath-13)"><path transform="rotate(-45.63 119.25 221.924)" fill="url(#Sfumatura_senza_nome_1612)" d="M102.1 205.04h34.32v33.81H102.1z"></path></g><g clip-path="url(#clippath-14)"><path transform="rotate(-45.63 165.565 221.934)" fill="url(#Sfumatura_senza_nome_1613)" d="M137.09 193.46h56.97v56.96h-56.97z"></path></g><g clip-path="url(#clippath-15)"><path transform="rotate(-45.63 224.124 221.933)" fill="url(#Sfumatura_senza_nome_1614)" d="M193.9 191.69h60.48v60.51H193.9z"></path></g><g clip-path="url(#clippath-16)"><path transform="rotate(-45.63 76.682 221.923)" fill="url(#Sfumatura_senza_nome_1615)" d="M46.77 191.99h59.85v59.91H46.77z"></path></g></g></svg>