<svg width="32" height="32" viewBox="0 0 32 32" xmlns="http://www.w3.org/2000/svg" class="css-w5vznv"><path d="M21.566 11.793c.184 0 .368.006.55.015-.763-4.022-4.947-7.097-9.997-7.097C6.53 4.711 2 8.481 2 13.131c0 2.534 1.362 4.818 3.497 6.362a.67.67 0 01.25.765c-.172.635-.444 1.65-.456 1.697-.022.081-.054.163-.054.247 0 .184.15.338.338.338a.396.396 0 00.194-.063L7.984 21.2c.166-.097.344-.156.538-.156.1 0 .2.015.297.043a11.998 11.998 0 003.86.45 6.416 6.416 0 01-.341-2.062c0-4.244 4.13-7.681 9.228-7.681zM15.494 9.09c.744 0 1.35.603 1.35 1.346a1.35 1.35 0 01-2.7 0 1.35 1.35 0 011.35-1.346zm-6.747 2.693a1.348 1.348 0 110-2.694 1.348 1.348 0 110 2.694zm18.337 12.988c1.779-1.288 2.913-3.188 2.913-5.303 0-3.875-3.775-7.016-8.434-7.016-4.657 0-8.435 3.14-8.435 7.016 0 3.875 3.775 7.015 8.434 7.015.963 0 1.894-.137 2.754-.384a.83.83 0 01.693.09l1.847 1.063a.314.314 0 00.163.053.282.282 0 00.2-.081.28.28 0 00.081-.2c0-.069-.028-.138-.044-.206-.01-.038-.237-.885-.381-1.416a.707.707 0 01-.028-.178.577.577 0 01.237-.453zm-8.328-6.422a1.124 1.124 0 01-1.125-1.122c0-.619.503-1.122 1.125-1.122s1.125.503 1.125 1.122c0 .619-.506 1.122-1.125 1.122zm5.622 0a1.124 1.124 0 01-1.125-1.122c0-.619.503-1.122 1.125-1.122s1.125.503 1.125 1.122a1.128 1.128 0 01-1.125 1.122z"></path></svg>