<svg id="Livello_1" xmlns="http://www.w3.org/2000/svg" x="0" y="0" viewBox="0 0 500 500" xml:space="preserve"><path d="M19.2 91.2c18.7-2.4 37.4-4.8 56.1-7.1 20.3-2.6 40.7-5 61-7.6 20.5-2.6 41-5.1 61.5-7.7 7.4-.9 14.8-1.8 22.6-2.8v169.2H19.2v-144zM19.2 263.9h201.2v169.2c-8.7-1.1-17.2-2.1-25.8-3.1-20.6-2.6-41.3-5.2-61.9-7.8-20-2.5-40.1-5-60.1-7.5-17.8-2.2-35.6-4.6-53.4-6.9V263.9zM479.6 235H250V62.2c76.3-9.5 152.8-19.1 229.6-28.7V235zM249.7 436.8V264.3h229.8v201.2c-76.6-9.5-153.1-19.1-229.8-28.7z"></path></svg>