<svg id="Livello_2" data-name="Livello 2" xmlns="http://www.w3.org/2000/svg" xmlns:xlink="http://www.w3.org/1999/xlink" viewBox="0 0 198.13 197.58" style="width: 100%; height: 100%;"><defs><linearGradient id="Sfumatura_senza_nome" x1="174.07" y1="-15.55" x2="132.28" y2="58.25" gradientTransform="matrix(1 0 0 -1 0 200)" gradientUnits="userSpaceOnUse"><stop offset="0" stop-color="#fb7655"></stop><stop offset="0" stop-color="#fb7655"></stop><stop offset="0.41" stop-color="#e42b1e"></stop><stop offset="0.99" stop-color="#900"></stop><stop offset="1" stop-color="#900"></stop></linearGradient><linearGradient id="Sfumatura_senza_nome_3" x1="194.9" y1="46.44" x2="141.03" y2="82.59" gradientTransform="matrix(1 0 0 -1 0 200)" gradientUnits="userSpaceOnUse"><stop offset="0" stop-color="#871101"></stop><stop offset="0" stop-color="#871101"></stop><stop offset="0.99" stop-color="#911209"></stop><stop offset="1" stop-color="#911209"></stop></linearGradient><linearGradient id="Sfumatura_senza_nome_3-2" x1="151.8" y1="-17.79" x2="97.93" y2="18.36" xlink:href="#Sfumatura_senza_nome_3"></linearGradient><linearGradient id="Sfumatura_senza_nome_4" x1="38.7" y1="72.61" x2="47.05" y2="18.34" gradientTransform="matrix(1 0 0 -1 0 200)" gradientUnits="userSpaceOnUse"><stop offset="0" stop-color="#fff"></stop><stop offset="0" stop-color="#fff"></stop><stop offset="0.23" stop-color="#e57252"></stop><stop offset="0.46" stop-color="#de3b20"></stop><stop offset="0.99" stop-color="#a60003"></stop><stop offset="1" stop-color="#a60003"></stop></linearGradient><linearGradient id="Sfumatura_senza_nome_5" x1="96.13" y1="123.28" x2="99.21" y2="67.9" gradientTransform="matrix(1 0 0 -1 0 200)" gradientUnits="userSpaceOnUse"><stop offset="0" stop-color="#fff"></stop><stop offset="0" stop-color="#fff"></stop><stop offset="0.23" stop-color="#e4714e"></stop><stop offset="0.56" stop-color="#be1a0d"></stop><stop offset="0.99" stop-color="#a80d00"></stop><stop offset="1" stop-color="#a80d00"></stop></linearGradient><linearGradient id="Sfumatura_senza_nome_6" x1="147.1" y1="174.48" x2="156.31" y2="134.78" gradientTransform="matrix(1 0 0 -1 0 200)" gradientUnits="userSpaceOnUse"><stop offset="0" stop-color="#fff"></stop><stop offset="0" stop-color="#fff"></stop><stop offset="0.18" stop-color="#e46342"></stop><stop offset="0.4" stop-color="#c82410"></stop><stop offset="0.99" stop-color="#a80d00"></stop><stop offset="1" stop-color="#a80d00"></stop></linearGradient><linearGradient id="Sfumatura_senza_nome_7" x1="118.98" y1="188.46" x2="158.67" y2="208.3" gradientTransform="matrix(1 0 0 -1 0 200)" gradientUnits="userSpaceOnUse"><stop offset="0" stop-color="#fff"></stop><stop offset="0" stop-color="#fff"></stop><stop offset="0.54" stop-color="#c81f11"></stop><stop offset="0.99" stop-color="#bf0905"></stop><stop offset="1" stop-color="#bf0905"></stop></linearGradient><linearGradient id="Sfumatura_senza_nome_8" x1="3.9" y1="86.45" x2="7.17" y2="53.74" gradientTransform="matrix(1 0 0 -1 0 200)" gradientUnits="userSpaceOnUse"><stop offset="0" stop-color="#fff"></stop><stop offset="0" stop-color="#fff"></stop><stop offset="0.31" stop-color="#de4024"></stop><stop offset="0.99" stop-color="#bf190b"></stop><stop offset="1" stop-color="#bf190b"></stop></linearGradient><linearGradient id="Sfumatura_senza_nome_9" x1="-18.56" y1="44.9" x2="135.01" y2="202.81" gradientTransform="matrix(1 0 0 -1 0 200)" gradientUnits="userSpaceOnUse"><stop offset="0" stop-color="#bd0012"></stop><stop offset="0" stop-color="#bd0012"></stop><stop offset="0.07" stop-color="#fff"></stop><stop offset="0.17" stop-color="#fff"></stop><stop offset="0.27" stop-color="#c82f1c"></stop><stop offset="0.33" stop-color="#820c01"></stop><stop offset="0.46" stop-color="#a31601"></stop><stop offset="0.72" stop-color="#b31301"></stop><stop offset="0.99" stop-color="#e82609"></stop><stop offset="1" stop-color="#e82609"></stop></linearGradient><linearGradient id="Sfumatura_senza_nome_10" x1="99.07" y1="28.97" x2="52.82" y2="40.38" gradientTransform="matrix(1 0 0 -1 0 200)" gradientUnits="userSpaceOnUse"><stop offset="0" stop-color="#8c0c01"></stop><stop offset="0" stop-color="#8c0c01"></stop><stop offset="0.54" stop-color="#990c00"></stop><stop offset="0.99" stop-color="#a80d0e"></stop><stop offset="1" stop-color="#a80d0e"></stop></linearGradient><linearGradient id="Sfumatura_senza_nome_11" x1="178.53" y1="84.49" x2="137.43" y2="121.32" gradientTransform="matrix(1 0 0 -1 0 200)" gradientUnits="userSpaceOnUse"><stop offset="0" stop-color="#7e110b"></stop><stop offset="0" stop-color="#7e110b"></stop><stop offset="0.99" stop-color="#9e0c00"></stop><stop offset="1" stop-color="#9e0c00"></stop></linearGradient><linearGradient id="Sfumatura_senza_nome_12" x1="193.62" y1="152.06" x2="173.15" y2="173.95" gradientTransform="matrix(1 0 0 -1 0 200)" gradientUnits="userSpaceOnUse"><stop offset="0" stop-color="#79130d"></stop><stop offset="0" stop-color="#79130d"></stop><stop offset="0.99" stop-color="#9e120b"></stop><stop offset="1" stop-color="#9e120b"></stop></linearGradient><linearGradient id="Sfumatura_senza_nome_15" x1="26.67" y1="2.66" x2="9.99" y2="59.26" gradientTransform="matrix(1 0 0 -1 0 200)" gradientUnits="userSpaceOnUse"><stop offset="0" stop-color="#8b2114"></stop><stop offset="0" stop-color="#8b2114"></stop><stop offset="0.43" stop-color="#9e100a"></stop><stop offset="0.99" stop-color="#b3100c"></stop><stop offset="1" stop-color="#b3100c"></stop></linearGradient><linearGradient id="Sfumatura_senza_nome_16" x1="154.64" y1="190.2" x2="192.04" y2="173.69" gradientTransform="matrix(1 0 0 -1 0 200)" gradientUnits="userSpaceOnUse"><stop offset="0" stop-color="#b31000"></stop><stop offset="0" stop-color="#b31000"></stop><stop offset="0.44" stop-color="#910f08"></stop><stop offset="0.99" stop-color="#791c12"></stop><stop offset="1" stop-color="#791c12"></stop></linearGradient><radialGradient id="Sfumatura_senza_nome_13" cx="143.83" cy="120.61" fx="143.83" fy="120.61" r="50.36" gradientTransform="matrix(1 0 0 -1 0 200)" gradientUnits="userSpaceOnUse"><stop offset="0" stop-color="#a80d00"></stop><stop offset="0" stop-color="#a80d00"></stop><stop offset="0.99" stop-color="#7e0e08"></stop><stop offset="1" stop-color="#7e0e08"></stop></radialGradient><radialGradient id="Sfumatura_senza_nome_14" cx="74.09" cy="54.25" fx="74.09" fy="54.25" r="66.94" gradientTransform="matrix(1 0 0 -1 0 200)" gradientUnits="userSpaceOnUse"><stop offset="0" stop-color="#a30c00"></stop><stop offset="0" stop-color="#a30c00"></stop><stop offset="0.99" stop-color="#800e08"></stop><stop offset="1" stop-color="#800e08"></stop></radialGradient></defs><g id="Layer_1" fill-rule="evenodd"><path id="polygon3282" fill="url(#Sfumatura_senza_nome)" d="M153.5 130.41L40.38 197.58l146.47-9.94 11.28-147.69-44.63 90.46z"></path><path id="polygon3293" fill="url(#Sfumatura_senza_nome_3)" d="M187.09 187.54l-12.59-86.89-34.29 45.28 46.88 41.61z"></path><path id="polygon3304" fill="url(#Sfumatura_senza_nome_3-2)" d="M187.26 187.54l-92.23-7.24-54.16 17.09 146.39-9.85z"></path><path id="polygon3319" fill="url(#Sfumatura_senza_nome_4)" d="M41 197.41l23.04-75.48-50.7 10.84L41 197.41z"></path><path id="polygon3334" fill="url(#Sfumatura_senza_nome_5)" d="M140.2 146.18L119 63.14l-60.67 56.87 81.87 26.17z"></path><path id="polygon3349" fill="url(#Sfumatura_senza_nome_6)" d="M193.32 64.31l-57.35-46.84L120 69.1l73.32-4.79z"></path><path id="polygon3362" fill="url(#Sfumatura_senza_nome_7)" d="M166.5.77l-33.73 18.64L111.49.52l55.01.25z"></path><path id="polygon3375" fill="url(#Sfumatura_senza_nome_8)" d="M0 158.09l14.13-25.77-11.43-30.7L0 158.09z"></path><path id="path3377" d="M1.94 100.65l11.5 32.62 49.97-11.21 57.05-53.02 16.1-51.14L111.21 0l-43.1 16.13C54.53 28.76 28.18 53.75 27.23 54.22c-.94.48-17.4 31.59-25.29 46.43z" fill="#fff"></path><path id="path3400" d="M42.32 42.05c29.43-29.18 67.37-46.42 81.93-31.73 14.55 14.69-.88 50.39-30.31 79.56s-66.9 47.36-81.45 32.67c-14.56-14.68.4-51.33 29.83-80.5z" fill="url(#Sfumatura_senza_nome_9)"></path><path id="path3413" d="M41 197.38l22.86-75.72 75.92 24.39c-27.45 25.74-57.98 47.5-98.78 51.33z" fill="url(#Sfumatura_senza_nome_10)"></path><path id="path3424" d="M120.56 68.89l19.49 77.2c22.93-24.11 43.51-50.03 53.59-82.09l-73.08 4.89z" fill="url(#Sfumatura_senza_nome_11)"></path><path id="path3435" d="M193.44 64.39c7.8-23.54 9.6-57.31-27.18-63.58l-30.18 16.67 57.36 46.91z" fill="url(#Sfumatura_senza_nome_12)"></path><path id="path3437" d="M0 157.75c1.08 38.85 29.11 39.43 41.05 39.77l-27.58-64.41L0 157.75z" fill="#9e1209"></path><path id="path3448" d="M120.67 69.01c17.62 10.83 53.13 32.58 53.85 32.98 1.12.63 15.31-23.93 18.53-37.81l-72.38 4.83z" fill="url(#Sfumatura_senza_nome_13)"></path><path id="path3459" d="M63.83 121.66l30.56 58.96c18.07-9.8 32.22-21.74 45.18-34.53l-75.74-24.43z" fill="url(#Sfumatura_senza_nome_14)"></path><path id="path3472" d="M13.35 133.19l-4.33 51.56c8.17 11.16 19.41 12.13 31.2 11.26-8.53-21.23-25.57-63.68-26.87-62.82z" fill="url(#Sfumatura_senza_nome_15)"></path><path id="path3485" d="M135.9 17.61l60.71 8.52C193.37 12.4 183.42 3.54 166.46.77L135.9 17.61z" fill="url(#Sfumatura_senza_nome_16)"></path></g></svg>