<svg width="58.97" height="58.958" viewBox="0 0 15.603 15.599" id="svg5" xmlns="http://www.w3.org/2000/svg"><g id="layer1" transform="translate(-32.637 -24.59)" stroke-miterlimit="4" stroke-dasharray="none"><rect id="rect6830" width="12.029" height="13.568" x="63.304" y="40.018" ry="3.222" opacity="1" fill="#00a8f0" fill-opacity="0" fill-rule="nonzero" stroke="none" stroke-width="1.518" stroke-linecap="round" stroke-opacity="1" paint-order="markers stroke fill"></rect><rect id="rect6832" width="9.447" height="10.423" x="65.886" y="43.163" ry="3.222" opacity="1" fill="#00a8f0" fill-opacity="0" fill-rule="nonzero" stroke="none" stroke-width="1.518" stroke-linecap="round" stroke-opacity="1" paint-order="markers stroke fill"></rect><g id="layer1-3" transform="translate(94.37 11.112)"><rect id="rect6830-6" width="12.029" height="13.568" x="63.304" y="40.018" ry="3.222" opacity="1" fill="#00a8f0" fill-opacity="0" fill-rule="nonzero" stroke="none" stroke-width="1.518" stroke-linecap="round" stroke-opacity="1" paint-order="markers stroke fill"></rect><rect id="rect6832-2" width="9.447" height="10.423" x="65.886" y="43.163" ry="3.222" opacity="1" fill="#00a8f0" fill-opacity="0" fill-rule="nonzero" stroke="none" stroke-width="1.518" stroke-linecap="round" stroke-opacity="1" paint-order="markers stroke fill"></rect><path d="M-54.894 29.052c-.13-.054-.15-.148-.15-.676v-.506l-.13-.037a1.051 1.051 0 00-.175-.036c-.024 0-.251-.069-.505-.152a6.2 6.2 0 01-1.316-.609l-.226-.14-.37.364c-.532.522-.463.538-1.293-.292-.83-.83-.814-.761-.29-1.293l.363-.37-.122-.191a6.523 6.523 0 01-.758-1.76c-.095-.377-.196-1.066-.196-1.343v-.173h2.22l.023.306a3.91 3.91 0 002.688 3.404 3.902 3.902 0 004.68-1.95c.247-.492.424-1.162.424-1.612v-.148h2.24l-.023.34c-.076 1.08-.398 2.088-.94 2.936l-.123.191.364.37c.523.53.539.462-.291 1.292-.83.83-.762.815-1.293.292l-.37-.364-.19.122c-.564.36-1.324.666-2.063.829l-.093.02-.011.54c-.01.46-.02.547-.074.6-.056.056-.152.063-.993.07-.512.004-.965-.007-1.007-.024zm-6.283-8.374c-.17-.054-.462-.356-.515-.534-.096-.326-.028-.587.218-.833.219-.219.352-.26.834-.26.268 0 .375-.012.383-.044.052-.188.267-.734.406-1.03.437-.923 1.088-1.783 1.81-2.39.306-.255.832-.63.853-.607.006.006.089.713.185 1.57.191 1.716.192 1.72.445 1.866.356.207.817-.064.817-.48 0-.09-.095-1-.211-2.024-.116-1.024-.204-1.912-.194-1.975a.547.547 0 01.314-.395c.134-.06.261-.065 1.903-.065 1.641 0 1.769.005 1.902.065.165.075.29.232.314.395.01.063-.077.949-.193 1.97a63.277 63.277 0 00-.211 2.024c0 .421.458.694.817.485.252-.147.253-.15.445-1.867.096-.856.179-1.563.185-1.569.006-.007.13.069.275.167 1.172.79 2.112 2.011 2.632 3.416.082.22.154.42.16.444.01.032.117.044.385.044.441 0 .593.04.785.204.475.406.374 1.116-.196 1.385l-.175.083-7.125-.003c-5.09-.003-7.16-.015-7.248-.042z" id="path3394" fill="#19174b" fill-opacity="1" stroke-width="0.035"></path></g></g></svg>