<svg viewBox="0 0 110.421 109.846" xmlns="http://www.w3.org/2000/svg" xmlns:xlink="http://www.w3.org/1999/xlink" style="width: 100%; height: 100%;"><defs><linearGradient gradientUnits="userSpaceOnUse" y2="131.853" x2="110.149" y1="77.07" x1="55.549" id="linearGradient9521" xlink:href="#linearGradient9515"></linearGradient><linearGradient id="linearGradient9515"><stop id="stop9517" offset="0" stop-color="#387eb8" stop-opacity="1"></stop><stop id="stop9519" offset="1" stop-color="#366994" stop-opacity="1"></stop></linearGradient><linearGradient gradientUnits="userSpaceOnUse" y2="168.101" x2="147.777" y1="111.921" x1="89.137" id="linearGradient11307" xlink:href="#linearGradient11301"></linearGradient><linearGradient id="linearGradient11301"><stop id="stop11303" offset="0" stop-color="#ffe052" stop-opacity="1"></stop><stop id="stop11305" offset="1" stop-color="#ffc331" stop-opacity="1"></stop></linearGradient></defs><g id="layer1" transform="translate(-473.36 -251.725)"><g id="g1894" transform="translate(428.423 184.256)" color="#000" fill-opacity="1" fill-rule="nonzero" stroke="none" stroke-width="1" stroke-linecap="butt" stroke-linejoin="miter" marker-start="none" marker-mid="none" marker-end="none" stroke-miterlimit="4" stroke-dasharray="none" stroke-dashoffset="0" stroke-opacity="1" visibility="visible"><path d="M99.75 67.469c-28.032 0-26.281 12.156-26.281 12.156l.031 12.594h26.75V96H62.875s-17.938-2.034-17.938 26.25 15.657 27.281 15.657 27.281h9.343v-13.125s-.503-15.656 15.407-15.656h26.531s14.906.241 14.906-14.406V82.125s2.263-14.656-27.031-14.656zM85 75.938a4.808 4.808 0 014.813 4.812A4.808 4.808 0 0185 85.563a4.808 4.808 0 01-4.813-4.813A4.808 4.808 0 0185 75.937z" id="path8615" opacity="1" fill="url(#linearGradient9521)" display="inline" overflow="visible" style="marker: none;"></path><path id="path8620" d="M100.546 177.315c28.032 0 26.281-12.156 26.281-12.156l-.03-12.594h-26.75v-3.781h37.374s17.938 2.034 17.938-26.25c0-28.285-15.657-27.282-15.657-27.282h-9.343v13.125s.503 15.657-15.407 15.657h-26.53s-14.907-.241-14.907 14.406v24.219s-2.263 14.656 27.031 14.656zm14.75-8.469a4.808 4.808 0 01-4.812-4.812 4.808 4.808 0 014.812-4.813 4.808 4.808 0 014.813 4.813 4.808 4.808 0 01-4.813 4.812z" opacity="1" fill="url(#linearGradient11307)" display="inline" overflow="visible" style="marker: none;"></path></g></g></svg>