<svg width="32" height="32" viewBox="0 0 28 26" fill="none" xmlns="http://www.w3.org/2000/svg" class="css-w5vznv"><path d="M26.9 9.05a13.96 13.96 0 00-3-4.45A13.96 13.96 0 0014 .5a13.96 13.96 0 00-9.9 4.1A13.96 13.96 0 000 14.5c0 4.147 1.822 8.053 4.997 10.722l.053.044c.181.15.41.234.644.234h16.615c.235 0 .463-.084.644-.234l.053-.044A13.982 13.982 0 0028 14.5c0-1.89-.372-3.722-1.1-5.45zm-13.837-4.8a.25.25 0 01.25-.25h1.374a.25.25 0 01.25.25v2.5a.25.25 0 01-.25.25h-1.374a.25.25 0 01-.25-.25v-2.5zM6.436 15.188a.25.25 0 01-.25.25h-2.5a.25.25 0 01-.25-.25v-1.376a.25.25 0 01.25-.25h2.5a.25.25 0 01.25.25v1.376zm2.835-6.391l-.972.972a.25.25 0 01-.353 0L6.178 8a.25.25 0 010-.353l.972-.972a.25.25 0 01.353 0l1.769 1.769a.25.25 0 010 .353zm9.097 2.612l-2.64 2.641a1.746 1.746 0 01-1.022 2.07 1.748 1.748 0 01-2.287-.947 1.75 1.75 0 012.07-2.36l2.641-2.641a.25.25 0 01.353 0l.885.884a.25.25 0 010 .353zm1.343-1.637l-.971-.972a.251.251 0 010-.353l1.768-1.769a.25.25 0 01.354 0l.971.972a.251.251 0 010 .353l-1.768 1.769a.25.25 0 01-.354 0zm4.726 5.415a.25.25 0 01-.25.25h-2.5a.25.25 0 01-.25-.25v-1.374a.25.25 0 01.25-.25h2.5a.25.25 0 01.25.25v1.374z"></path></svg>