<svg width="60.855" height="35.671" viewBox="0 0 16.101 9.438" id="svg5" xmlns="http://www.w3.org/2000/svg"><g id="layer1" transform="translate(-32.387 -27.67)"><g id="layer1-3" transform="translate(94.37 11.112)"><path d="M-59.64 25.956a2.897 2.897 0 01-2.272-2.109c-.091-.337-.096-.995-.01-1.32a2.876 2.876 0 011.547-1.896c.156-.077.39-.167.52-.2l.236-.058.035-.358c.093-.941.445-1.693 1.097-2.345a3.762 3.762 0 014.942-.349c.33.25.749.71.953 1.052.003.005.127-.049.277-.119.438-.206.69-.26 1.203-.262.49-.002.71.038 1.106.203a2.857 2.857 0 011.652 1.91c.034.132.066.244.072.25.006.006.123.039.26.073.137.035.377.126.533.203a2.875 2.875 0 011.546 1.895c.081.304.081.983 0 1.287a3.01 3.01 0 01-1.164 1.685c-.216.15-.633.34-.918.42l-.252.071-5.56.006c-4.641.004-5.601-.002-5.803-.039z" id="path14714" fill="#19174b" fill-opacity="1" stroke-width="0.032"></path></g></g></svg>